<?xml version="1.0" encoding="UTF-8" standalone="no"?>
<!-- Generator: Adobe Illustrator 22.1.0, SVG Export Plug-In . SVG Version: 6.00 Build 0)  -->

<svg
   xmlns:dc="http://purl.org/dc/elements/1.1/"
   xmlns:cc="http://creativecommons.org/ns#"
   xmlns:rdf="http://www.w3.org/1999/02/22-rdf-syntax-ns#"
   xmlns:svg="http://www.w3.org/2000/svg"
   xmlns="http://www.w3.org/2000/svg"
   xmlns:sodipodi="http://sodipodi.sourceforge.net/DTD/sodipodi-0.dtd"
   xmlns:inkscape="http://www.inkscape.org/namespaces/inkscape"
   version="1.1"
   id="Layer_1"
   x="0px"
   y="0px"
   viewBox="0 0 564.29999 116.99999"
   xml:space="preserve"
   sodipodi:docname="apibillme.svg"
   width="564.29999"
   height="116.99999"
   inkscape:version="0.92.2 5c3e80d, 2017-08-06"><metadata
     id="metadata4179"><rdf:RDF><cc:Work
         rdf:about=""><dc:format>image/svg+xml</dc:format><dc:type
           rdf:resource="http://purl.org/dc/dcmitype/StillImage" /><dc:title></dc:title></cc:Work></rdf:RDF></metadata><defs
     id="defs4177" /><sodipodi:namedview
     pagecolor="#ffffff"
     bordercolor="#666666"
     borderopacity="1"
     objecttolerance="10"
     gridtolerance="10"
     guidetolerance="10"
     inkscape:pageopacity="0"
     inkscape:pageshadow="2"
     inkscape:window-width="640"
     inkscape:window-height="480"
     id="namedview4175"
     showgrid="false"
     fit-margin-top="0"
     fit-margin-left="0"
     fit-margin-right="0"
     fit-margin-bottom="0"
     inkscape:zoom="0.42228739"
     inkscape:cx="267.3"
     inkscape:cy="69.6"
     inkscape:window-x="672"
     inkscape:window-y="167"
     inkscape:window-maximized="0"
     inkscape:current-layer="Layer_1" /><style
     type="text/css"
     id="style4130">
	.st0{fill:#8C8C8C;}
	.st1{fill:#3DD8D8;}
	.st2{fill:#EF3D06;}
	.st3{fill:#F2C300;}
	.st4{fill:#0AAEAB;}
	.st5{fill:#255C65;}
	.st6{fill:#B4CF37;}
</style><g
     id="g4172"
     transform="translate(-73.699997,-182.10001)"><g
       id="g4152"><path
         class="st0"
         d="m 262.8,219.7 h 11.6 V 266 h -11.6 v -4.9 c -2.3,2.2 -4.5,3.7 -6.8,4.7 -2.3,1 -4.8,1.4 -7.4,1.4 -6,0 -11.2,-2.3 -15.5,-7 -4.3,-4.7 -6.6,-10.4 -6.6,-17.3 0,-7.2 2.1,-13 6.3,-17.6 4.2,-4.6 9.4,-6.9 15.4,-6.9 2.8,0 5.4,0.5 7.8,1.6 2.4,1.1 4.7,2.6 6.8,4.7 z m -12.3,9.5 c -3.6,0 -6.6,1.3 -9,3.8 -2.4,2.5 -3.6,5.8 -3.6,9.8 0,4 1.2,7.3 3.6,9.9 2.4,2.6 5.4,3.9 8.9,3.9 3.7,0 6.7,-1.3 9.1,-3.8 2.4,-2.5 3.6,-5.9 3.6,-10 0,-4 -1.2,-7.3 -3.6,-9.8 -2.2,-2.5 -5.3,-3.8 -9,-3.8 z"
         id="path4132"
         inkscape:connector-curvature="0"
         style="fill:#8c8c8c" /><path
         class="st0"
         d="m 297.7,219.7 v 5.1 c 2.1,-2.1 4.4,-3.7 6.8,-4.7 2.4,-1.1 5.1,-1.6 7.8,-1.6 6.1,0 11.2,2.3 15.4,6.9 4.2,4.6 6.4,10.4 6.4,17.6 0,6.9 -2.2,12.7 -6.6,17.3 -4.4,4.6 -9.6,7 -15.6,7 -2.7,0 -5.2,-0.5 -7.5,-1.4 -2.3,-1 -4.6,-2.5 -6.9,-4.7 V 283 H 286 v -63.3 z m 12.3,9.5 c -3.7,0 -6.7,1.3 -9.1,3.8 -2.4,2.5 -3.6,5.8 -3.6,9.8 0,4.1 1.2,7.5 3.6,10 2.4,2.5 5.5,3.8 9.1,3.8 3.6,0 6.5,-1.3 9,-3.9 2.4,-2.6 3.6,-5.9 3.6,-9.9 0,-4 -1.2,-7.2 -3.6,-9.8 -2.4,-2.6 -5.4,-3.8 -9,-3.8 z"
         id="path4134"
         inkscape:connector-curvature="0"
         style="fill:#8c8c8c" /><path
         class="st0"
         d="m 348.3,200.6 c 2,0 3.8,0.7 5.2,2.2 1.5,1.5 2.2,3.3 2.2,5.4 0,2.1 -0.7,3.8 -2.2,5.3 -1.4,1.5 -3.2,2.2 -5.2,2.2 -2.1,0 -3.8,-0.7 -5.3,-2.2 -1.5,-1.5 -2.2,-3.3 -2.2,-5.4 0,-2 0.7,-3.8 2.2,-5.2 1.6,-1.6 3.3,-2.3 5.3,-2.3 z m -5.8,19.1 h 11.6 V 266 h -11.6 z"
         id="path4136"
         inkscape:connector-curvature="0"
         style="fill:#8c8c8c" /><path
         class="st0"
         d="m 376.3,201.8 v 23 c 2.1,-2.1 4.4,-3.7 6.8,-4.7 2.4,-1.1 5.1,-1.6 7.8,-1.6 6.1,0 11.2,2.3 15.4,6.9 4.2,4.6 6.4,10.4 6.4,17.6 0,6.9 -2.2,12.7 -6.6,17.3 -4.4,4.6 -9.6,7 -15.6,7 -2.7,0 -5.2,-0.5 -7.5,-1.4 -2.3,-1 -4.6,-2.5 -6.9,-4.7 v 4.9 h -11.5 v -64.3 z m 12.2,27.4 c -3.7,0 -6.7,1.3 -9.1,3.8 -2.4,2.5 -3.6,5.8 -3.6,9.8 0,4.1 1.2,7.5 3.6,10 2.4,2.5 5.5,3.8 9.1,3.8 3.6,0 6.5,-1.3 9,-3.9 2.4,-2.6 3.6,-5.9 3.6,-9.9 0,-4 -1.2,-7.2 -3.6,-9.8 -2.4,-2.6 -5.4,-3.8 -9,-3.8 z"
         id="path4138"
         inkscape:connector-curvature="0"
         style="fill:#8c8c8c" /><path
         class="st0"
         d="m 426.9,200.6 c 2,0 3.8,0.7 5.2,2.2 1.5,1.5 2.2,3.3 2.2,5.4 0,2.1 -0.7,3.8 -2.2,5.3 -1.4,1.5 -3.2,2.2 -5.2,2.2 -2.1,0 -3.8,-0.7 -5.3,-2.2 -1.5,-1.5 -2.2,-3.3 -2.2,-5.4 0,-2 0.7,-3.8 2.2,-5.2 1.5,-1.6 3.2,-2.3 5.3,-2.3 z m -5.8,19.1 h 11.6 V 266 h -11.6 z"
         id="path4140"
         inkscape:connector-curvature="0"
         style="fill:#8c8c8c" /><path
         class="st0"
         d="m 442,201.8 h 11.6 V 266 H 442 Z"
         id="path4142"
         inkscape:connector-curvature="0"
         style="fill:#8c8c8c" /><path
         class="st0"
         d="m 462.9,201.8 h 11.6 V 266 h -11.6 z"
         id="path4144"
         inkscape:connector-curvature="0"
         style="fill:#8c8c8c" /><path
         class="st0"
         d="m 491.5,253.9 c 1.8,0 3.4,0.6 4.7,1.9 1.3,1.3 2,2.9 2,4.7 0,1.8 -0.7,3.4 -2,4.7 -1.3,1.3 -2.9,2 -4.7,2 -1.8,0 -3.4,-0.7 -4.7,-2 -1.3,-1.3 -2,-2.9 -2,-4.7 0,-1.8 0.7,-3.4 2,-4.7 1.2,-1.3 2.8,-1.9 4.7,-1.9 z"
         id="path4146"
         inkscape:connector-curvature="0"
         style="fill:#8c8c8c" /><path
         class="st0"
         d="m 509.5,219.7 h 11.6 v 5.3 c 2,-2.2 4.2,-3.8 6.6,-4.9 2.4,-1.1 5.1,-1.6 8,-1.6 2.9,0 5.5,0.7 7.8,2.1 2.3,1.4 4.2,3.5 5.6,6.2 1.8,-2.7 4.1,-4.8 6.8,-6.2 2.7,-1.4 5.6,-2.1 8.8,-2.1 3.3,0 6.2,0.8 8.7,2.3 2.5,1.5 4.3,3.5 5.4,6 1.1,2.5 1.6,6.5 1.6,12.1 V 266 h -11.7 v -23.5 c 0,-5.3 -0.7,-8.8 -2,-10.7 -1.3,-1.9 -3.3,-2.8 -5.9,-2.8 -2,0 -3.8,0.6 -5.3,1.7 -1.6,1.1 -2.7,2.7 -3.5,4.7 -0.8,2 -1.2,5.2 -1.2,9.7 V 266 h -11.7 v -22.5 c 0,-4.1 -0.3,-7.2 -0.9,-9 -0.6,-1.9 -1.5,-3.2 -2.8,-4.2 -1.2,-0.9 -2.7,-1.4 -4.4,-1.4 -1.9,0 -3.7,0.6 -5.3,1.7 -1.6,1.2 -2.8,2.8 -3.5,4.8 -0.8,2.1 -1.2,5.3 -1.2,9.8 V 266 h -11.6 v -46.3 z"
         id="path4148"
         inkscape:connector-curvature="0"
         style="fill:#8c8c8c" /><path
         class="st0"
         d="m 638,246.2 h -37.4 c 0.5,3.3 2,5.9 4.3,7.9 2.3,1.9 5.3,2.9 9,2.9 4.3,0 8.1,-1.5 11.2,-4.6 l 9.8,4.6 c -2.4,3.5 -5.4,6 -8.8,7.7 -3.4,1.7 -7.5,2.5 -12.1,2.5 -7.3,0 -13.2,-2.3 -17.8,-6.9 -4.6,-4.6 -6.9,-10.3 -6.9,-17.2 0,-7.1 2.3,-12.9 6.8,-17.6 4.6,-4.7 10.3,-7 17.2,-7 7.3,0 13.2,2.3 17.8,7 4.6,4.7 6.9,10.8 6.9,18.5 z m -11.6,-9.1 c -0.8,-2.6 -2.3,-4.7 -4.5,-6.3 -2.3,-1.6 -4.9,-2.4 -7.9,-2.4 -3.2,0 -6.1,0.9 -8.5,2.7 -1.5,1.1 -3,3.1 -4.3,6 z"
         id="path4150"
         inkscape:connector-curvature="0"
         style="fill:#8c8c8c" /></g><g
       id="g4170"><polygon
         class="st1"
         points="139.8,204.4 139.8,226.5 131.6,226.5 131.6,242.1 137.7,242.1 137.7,254.9 131.6,254.9 131.6,261.2 149,261.2 149,283.3 131.6,283.3 131.6,299.1 220.2,299.1 220.2,191.7 131.6,191.7 131.6,204.4 "
         id="polygon4154"
         style="fill:#3dd8d8" /><rect
         x="105.1"
         y="243.89999"
         class="st2"
         width="17.4"
         height="17.4"
         id="rect4156"
         style="fill:#ef3d06" /><rect
         x="124.7"
         y="266"
         class="st3"
         width="17.4"
         height="17.4"
         id="rect4158"
         style="fill:#f2c300" /><rect
         x="118.9"
         y="204.39999"
         class="st3"
         width="17.4"
         height="17.4"
         id="rect4160"
         style="fill:#f2c300" /><rect
         x="95.699997"
         y="204.39999"
         class="st4"
         width="8.6999998"
         height="8.6999998"
         id="rect4162"
         style="fill:#0aaeab" /><rect
         x="73.699997"
         y="200.10001"
         class="st5"
         width="8.6999998"
         height="8.6999998"
         id="rect4164"
         style="fill:#255c65" /><rect
         x="87.099998"
         y="182.10001"
         class="st2"
         width="6.0999999"
         height="6.0999999"
         id="rect4166"
         style="fill:#ef3d06" /><rect
         x="85.400002"
         y="223.2"
         class="st6"
         width="11.9"
         height="11.9"
         id="rect4168"
         style="fill:#b4cf37" /></g></g></svg>